<?xml version="1.0" standalone="no"?>
<!DOCTYPE svg PUBLIC "-//W3C//DTD SVG 20010904//EN"
 "http://www.w3.org/TR/2001/REC-SVG-20010904/DTD/svg10.dtd">
<svg version="1.0" xmlns="http://www.w3.org/2000/svg"
 width="1280.000000pt" height="720.000000pt" viewBox="0 0 1280.000000 720.000000"
 preserveAspectRatio="xMidYMid meet">
<metadata>
Created by potrace 1.15, written by Peter Selinger 2001-2017
</metadata>
<g transform="translate(0.000000,720.000000) scale(0.100000,-0.100000)"
fill="#000000" stroke="none">
<path d="M5842 5866 c-445 -871 -557 -1085 -575 -1089 -12 -3 -553 -90 -1202
-193 -649 -103 -1182 -189 -1185 -191 -2 -2 384 -392 858 -866 l862 -862 -190
-1204 c-104 -663 -188 -1207 -186 -1209 2 -2 491 245 1087 547 595 303 1085
551 1089 551 4 0 495 -248 1090 -550 595 -303 1084 -549 1086 -547 2 2 -81
546 -186 1208 l-190 1204 862 862 c474 474 860 864 858 866 -3 2 -536 88
-1185 191 -649 103 -1190 190 -1202 193 -17 4 -135 227 -575 1089 -304 596
-555 1084 -558 1084 -3 0 -254 -488 -558 -1084z"/>
</g>
</svg>
