<svg version="1.1" xmlns="http://www.w3.org/2000/svg" xmlns:xlink="http://www.w3.org/1999/xlink" width="1280.000000pt" height="720.000000pt" viewBox="0,0,256,144"><g fill="#ffc000" fill-rule="nonzero" stroke="none" stroke-width="1" stroke-linecap="butt" stroke-linejoin="miter" stroke-miterlimit="10" stroke-dasharray="" stroke-dashoffset="0" font-family="none" font-weight="none" font-size="none" text-anchor="none" style="mix-blend-mode: normal"><g transform="translate(0,0.01988) scale(0.2,0.2)"><g transform="translate(0,720) scale(0.1,-0.1)"><path d="M5842,5866c-445,-871 -557,-1085 -575,-1089c-12,-3 -553,-90 -1202,-193c-649,-103 -1182,-189 -1185,-191c-2,-2 384,-392 858,-866l862,-862l-190,-1204c-104,-663 -188,-1207 -186,-1209c2,-2 491,245 1087,547c595,303 1085,551 1089,551c4,0 495,-248 1090,-550c595,-303 1084,-549 1086,-547c2,2 -81,546 -186,1208l-190,1204l862,862c474,474 860,864 858,866c-3,2 -536,88 -1185,191c-649,103 -1190,190 -1202,193c-17,4 -135,227 -575,1089c-304,596 -555,1084 -558,1084c-3,0 -254,-488 -558,-1084z"></path></g></g></g></svg>